<svg width="137px" height="42px" viewBox="0 0 137 42" version="1.1" xmlns="http://www.w3.org/2000/svg" xmlns:xlink="http://www.w3.org/1999/xlink">
  <g id="Page-1" stroke="none" stroke-width="1" fill="none" fill-rule="evenodd">
    <g id="desk-footer" transform="translate(-1039.000000, -60.000000)" fill-rule="nonzero">
      <g id="Footer">
        <g id="download_on_the_app_store_rus" transform="translate(1040.000000, 61.000000)">
          <path d="M130.2,40 L4.7,40 C2.1,40 0,37.9 0,35.3 L0,4.7 C0,2.1 2.1,0 4.7,0 L130.2,0 C132.8,0 135,2.1 135,4.7 L135,35.2 C135,37.9 132.8,40 130.2,40 L130.2,40 Z" id="Path" stroke="#7E7E7E"></path>
          <path d="M134,35.3 C134,37.4 132.3,39.1 130.2,39.1 L4.7,39.1 C2.6,39.1 0.9,37.4 0.9,35.3 L0.9,4.7 C0.9,2.6 2.6,0.9 4.7,0.9 L130.2,0.9 C132.3,0.9 134,2.6 134,4.7 L134,35.3 L134,35.3 Z" id="Path"></path>
          <g id="Group" transform="translate(12.000000, 6.000000)" fill="#FFFFFF">
            <path d="M18.1,13.8 C18.1,10.6 20.7,9 20.9,8.9 C19.4,6.7 17,6.4 16.2,6.4 C14.2,6.2 12.3,7.6 11.3,7.6 C10.3,7.6 8.7,6.4 7.1,6.5 C5,6.5 3,7.8 1.9,9.7 C-0.4,13.6 1.3,19.4 3.5,22.6 C4.6,24.2 5.9,25.9 7.5,25.8 C9.1,25.7 9.7,24.8 11.7,24.8 C13.6,24.8 14.2,25.8 15.9,25.8 C17.6,25.8 18.7,24.2 19.8,22.7 C21.1,20.9 21.6,19.2 21.6,19.1 C21.5,18.9 18.2,17.6 18.1,13.8 Z" id="Path"></path>
            <path d="M14.9,4.3 C15.8,3.2 16.4,1.7 16.2,0.2 C14.9,0.3 13.4,1.1 12.4,2.1 C11.6,3 10.9,4.6 11.1,6 C12.6,6.2 14,5.4 14.9,4.3 Z" id="Path"></path>
          </g>
          <g id="Group" transform="translate(42.000000, 18.000000)" fill="#FFFFFF">
            <path d="M11.6,13.5 L9.3,13.5 L8.1,9.6 L3.8,9.6 L2.6,13.5 L0.4,13.5 L4.7,0.2 L7.3,0.2 L11.6,13.5 Z M7.8,8 L6.7,4.5 C6.6,4.1 6.4,3.3 6,2 L6,2 C5.9,2.6 5.7,3.4 5.4,4.5 L4.2,8 L7.8,8 Z" id="Shape"></path>
            <path d="M22.7,8.6 C22.7,10.2 22.3,11.5 21.4,12.5 C20.6,13.3 19.6,13.8 18.5,13.8 C17.2,13.8 16.3,13.3 15.8,12.4 L15.8,12.4 L15.8,17.5 L13.7,17.5 L13.7,7.1 C13.7,6.1 13.7,5 13.6,3.9 L15.5,3.9 L15.6,5.4 L15.6,5.4 C16.3,4.3 17.4,3.7 18.8,3.7 C19.9,3.7 20.9,4.1 21.6,5 C22.3,5.9 22.7,7.1 22.7,8.6 Z M20.5,8.7 C20.5,7.8 20.3,7 19.9,6.4 C19.4,5.8 18.8,5.5 18,5.5 C17.5,5.5 17,5.7 16.6,6 C16.2,6.4 15.9,6.8 15.8,7.4 C15.7,7.7 15.7,7.9 15.7,8 L15.7,9.6 C15.7,10.3 15.9,10.9 16.3,11.4 C16.7,11.9 17.3,12.1 18,12.1 C18.8,12.1 19.4,11.8 19.9,11.2 C20.3,10.5 20.5,9.7 20.5,8.7 Z" id="Shape"></path>
            <path d="M33.7,8.6 C33.7,10.2 33.3,11.5 32.4,12.5 C31.6,13.3 30.6,13.8 29.5,13.8 C28.2,13.8 27.3,13.3 26.8,12.4 L26.8,12.4 L26.8,17.5 L24.7,17.5 L24.7,7.1 C24.7,6.1 24.7,5 24.6,3.9 L26.5,3.9 L26.6,5.4 L26.6,5.4 C27.3,4.3 28.4,3.7 29.8,3.7 C30.9,3.7 31.9,4.1 32.6,5 C33.3,5.9 33.7,7.1 33.7,8.6 Z M31.5,8.7 C31.5,7.8 31.3,7 30.9,6.4 C30.4,5.8 29.8,5.5 29,5.5 C28.5,5.5 28,5.7 27.6,6 C27.2,6.4 26.9,6.8 26.8,7.4 C26.7,7.7 26.7,7.9 26.7,8 L26.7,9.6 C26.7,10.3 26.9,10.9 27.3,11.4 C27.7,11.9 28.3,12.1 29,12.1 C29.8,12.1 30.4,11.8 30.9,11.2 C31.3,10.5 31.5,9.7 31.5,8.7 Z" id="Shape"></path>
            <path d="M46,9.8 C46,10.9 45.6,11.9 44.8,12.6 C43.9,13.4 42.7,13.8 41.2,13.8 C39.8,13.8 38.6,13.5 37.8,13 L38.3,11.2 C39.2,11.8 40.3,12.1 41.4,12.1 C42.2,12.1 42.8,11.9 43.3,11.6 C43.7,11.2 44,10.8 44,10.1 C44,9.6 43.8,9.1 43.4,8.7 C43,8.3 42.4,8 41.6,7.7 C39.3,6.8 38.1,5.6 38.1,3.9 C38.1,2.8 38.5,1.9 39.3,1.2 C40.1,0.5 41.2,0.2 42.6,0.2 C43.8,0.2 44.8,0.4 45.6,0.8 L45,2.4 C44.2,2 43.4,1.8 42.5,1.8 C41.7,1.8 41.2,2 40.7,2.4 C40.3,2.7 40.2,3.1 40.2,3.6 C40.2,4.1 40.4,4.6 40.8,4.9 C41.2,5.2 41.8,5.6 42.7,5.9 C43.8,6.4 44.7,6.9 45.2,7.5 C45.8,8.1 46,8.9 46,9.8 Z" id="Path"></path>
            <path d="M53.1,5.5 L50.8,5.5 L50.8,10.2 C50.8,11.4 51.2,12 52,12 C52.4,12 52.7,12 52.9,11.9 L53,13.5 C52.6,13.7 52,13.7 51.3,13.7 C50.5,13.7 49.8,13.4 49.3,12.9 C48.8,12.4 48.6,11.5 48.6,10.3 L48.6,5.5 L47.2,5.5 L47.2,3.9 L48.6,3.9 L48.6,2.1 L50.7,1.5 L50.7,3.9 L53,3.9 C53.1,3.9 53.1,5.5 53.1,5.5 Z" id="Path"></path>
            <path d="M63.7,8.6 C63.7,10.1 63.3,11.3 62.4,12.2 C61.5,13.2 60.3,13.7 58.9,13.7 C57.5,13.7 56.4,13.2 55.5,12.3 C54.6,11.4 54.2,10.2 54.2,8.8 C54.2,7.3 54.6,6.1 55.5,5.1 C56.4,4.2 57.5,3.7 59,3.7 C60.4,3.7 61.5,4.2 62.4,5.1 C63.3,6 63.7,7.2 63.7,8.6 Z M61.5,8.7 C61.5,7.8 61.3,7.1 60.9,6.4 C60.5,5.6 59.8,5.3 59,5.3 C58.1,5.3 57.5,5.7 57,6.4 C56.6,7 56.4,7.8 56.4,8.7 C56.4,9.6 56.6,10.3 57,11 C57.5,11.8 58.1,12.1 58.9,12.1 C59.7,12.1 60.4,11.7 60.8,10.9 C61.3,10.3 61.5,9.6 61.5,8.7 Z" id="Shape"></path>
            <path d="M70.6,5.8 C70.4,5.8 70.2,5.7 69.9,5.7 C69.1,5.7 68.6,6 68.2,6.6 C67.8,7.1 67.7,7.7 67.7,8.5 L67.7,13.5 L65.6,13.5 L65.6,6.9 C65.6,5.8 65.6,4.8 65.5,3.9 L67.4,3.9 L67.5,5.7 L67.6,5.7 C67.8,5.1 68.2,4.6 68.7,4.2 C69.2,3.9 69.7,3.7 70.2,3.7 C70.4,3.7 70.6,3.7 70.7,3.7 C70.6,3.8 70.6,5.8 70.6,5.8 Z" id="Path"></path>
            <path d="M80.2,8.3 C80.2,8.7 80.2,9 80.1,9.3 L73.7,9.3 C73.7,10.2 74,11 74.6,11.5 C75.1,11.9 75.8,12.2 76.7,12.2 C77.6,12.2 78.5,12 79.3,11.7 L79.6,13.2 C78.7,13.6 77.6,13.8 76.4,13.8 C74.9,13.8 73.7,13.4 72.9,12.5 C72.1,11.6 71.6,10.5 71.6,9 C71.6,7.6 72,6.3 72.8,5.4 C73.6,4.4 74.7,3.9 76.2,3.9 C77.6,3.9 78.6,4.4 79.3,5.4 C79.9,6 80.2,7.1 80.2,8.3 Z M78.1,7.7 C78.1,7.1 78,6.5 77.7,6.1 C77.3,5.5 76.8,5.2 76,5.2 C75.3,5.2 74.7,5.5 74.3,6.1 C73.9,6.6 73.7,7.1 73.7,7.8 L78.1,7.7 L78.1,7.7 Z" id="Shape"></path>
          </g>
          <g id="Group" transform="translate(43.000000, 6.000000)" fill="#FFFFFF">
            <path d="M0.4,1.3 C0.6,1.2 0.9,1.1 1.2,1 C1.5,0.9 1.8,0.9 2.2,0.9 C2.8,0.9 3.3,1 3.7,1.3 C4.1,1.6 4.2,2 4.2,2.5 C4.2,2.9 4.1,3.2 3.8,3.5 C3.5,3.8 3.2,4 2.9,4 L2.9,4 C3.1,4 3.3,4.1 3.5,4.2 C3.7,4.3 3.8,4.4 4,4.5 C4.1,4.6 4.2,4.8 4.3,5 C4.4,5.2 4.4,5.4 4.4,5.6 C4.4,6 4.3,6.3 4.2,6.5 C4.1,6.7 3.9,6.9 3.6,7.1 C3.4,7.3 3.1,7.4 2.8,7.4 C2.5,7.4 2.2,7.5 1.9,7.5 C1.6,7.5 1.3,7.5 1,7.4 C0.7,7.3 0.4,7.2 0.2,7.1 L0.5,6.3 C0.7,6.4 0.9,6.5 1.2,6.5 C1.5,6.6 1.7,6.6 2,6.6 C2.4,6.6 2.8,6.5 3,6.3 C3.2,6.1 3.4,5.8 3.4,5.5 C3.4,5.3 3.4,5.1 3.3,4.9 C3.2,4.8 3.1,4.6 2.9,4.6 C2.7,4.5 2.6,4.5 2.4,4.4 C2.2,4.3 2,4.4 1.8,4.4 L1.4,4.4 L1.4,3.6 L1.8,3.6 C2,3.6 2.2,3.6 2.4,3.5 C2.6,3.4 2.7,3.4 2.8,3.3 C2.9,3.2 3,3.1 3.1,3 C3.2,2.9 3.2,2.7 3.2,2.6 C3.2,2.3 3.1,2.1 2.9,1.9 C2.7,1.7 2.4,1.6 2,1.6 C1.8,1.6 1.5,1.6 1.3,1.7 C1.1,1.8 0.8,1.9 0.7,2 L0.4,1.3 Z" id="Path"></path>
            <path d="M8.8,7.4 L8.7,6.9 L8.7,6.9 C8.4,7.3 7.9,7.5 7.3,7.5 C7.1,7.5 6.9,7.5 6.7,7.4 C6.5,7.3 6.4,7.2 6.2,7.1 C6.1,7 6,6.8 5.9,6.7 C5.8,6.5 5.8,6.3 5.8,6.1 C5.8,5.5 6,5.1 6.5,4.8 C7,4.5 7.7,4.4 8.5,4.4 L8.5,4.3 C8.5,3.7 8.2,3.4 7.5,3.4 C7,3.4 6.6,3.5 6.3,3.7 L6.2,3 C6.6,2.7 7.2,2.6 7.8,2.6 C9,2.6 9.6,3.2 9.6,4.5 L9.6,6.2 C9.6,6.7 9.6,7.1 9.7,7.3 L8.8,7.4 L8.8,7.4 Z M8.6,5.1 C8,5.1 7.6,5.2 7.3,5.3 C7,5.4 6.9,5.7 6.9,6 C6.9,6.2 7,6.4 7.1,6.6 C7.2,6.8 7.4,6.8 7.6,6.8 C7.7,6.8 7.9,6.8 8,6.7 C8.1,6.7 8.2,6.6 8.3,6.5 C8.4,6.4 8.5,6.3 8.5,6.2 C8.6,6.1 8.6,6 8.6,5.8 L8.6,5.1 L8.6,5.1 Z" id="Shape"></path>
            <polygon id="Path" points="14.7 2.7 14.7 3.6 12.7 3.6 12.7 7.5 11.7 7.5 11.7 2.7"></polygon>
            <path d="M20.7,5 C20.7,5.4 20.6,5.7 20.5,6 C20.4,6.3 20.3,6.6 20.1,6.8 C19.9,7 19.7,7.2 19.4,7.3 C19.1,7.4 18.9,7.5 18.6,7.5 C18,7.5 17.5,7.3 17.3,6.8 L17.3,6.8 L17.3,9.3 L16.3,9.3 L16.3,4.2 C16.3,3.9 16.3,3.7 16.3,3.4 C16.3,3.1 16.3,2.9 16.3,2.6 L17.2,2.6 L17.3,3.3 L17.3,3.3 C17.6,2.7 18.2,2.5 18.9,2.5 C19.2,2.5 19.4,2.6 19.7,2.7 C19.9,2.8 20.1,3 20.3,3.2 C20.5,3.4 20.6,3.7 20.7,4 C20.6,4.3 20.7,4.7 20.7,5 Z M19.6,5.1 C19.6,4.9 19.6,4.7 19.5,4.5 C19.4,4.3 19.4,4.1 19.3,4 C19.2,3.9 19,3.7 18.9,3.6 C18.8,3.5 18.6,3.5 18.4,3.5 C18.3,3.5 18.1,3.5 18,3.6 C17.9,3.7 17.7,3.8 17.6,3.9 C17.5,4 17.4,4.1 17.3,4.3 C17.2,4.5 17.2,4.6 17.2,4.8 L17.2,5.6 C17.2,5.8 17.2,5.9 17.3,6.1 C17.4,6.2 17.4,6.4 17.5,6.5 C17.6,6.6 17.7,6.7 17.9,6.8 C18,6.9 18.2,6.9 18.4,6.9 C18.8,6.9 19.1,6.8 19.3,6.4 C19.5,6 19.6,5.6 19.6,5.1 Z" id="Shape"></path>
            <path d="M26.3,2.7 L25.1,6 C24.8,6.8 24.5,7.4 24.3,7.9 C24,8.4 23.8,8.8 23.5,9 C23.1,9.3 22.8,9.5 22.3,9.6 L22,8.7 C22.3,8.6 22.5,8.5 22.8,8.3 C23,8.1 23.2,7.8 23.4,7.5 C23.5,7.4 23.5,7.3 23.5,7.3 C23.5,7.3 23.5,7.2 23.4,7.1 L21.7,2.8 L22.9,2.8 L23.8,5.4 C23.8,5.5 23.9,5.7 23.9,5.8 C23.9,6 24,6.1 24,6.3 L24,6.3 C24,6.2 24.1,6.1 24.1,5.9 C24.1,5.7 24.2,5.6 24.3,5.4 L25.1,2.8 L26.3,2.7 L26.3,2.7 Z" id="Path"></path>
            <path d="M28.1,4.7 L28.6,4.7 C29,4.7 29.2,4.6 29.4,4.5 C29.6,4.4 29.7,4.2 29.7,4 C29.7,3.8 29.6,3.7 29.5,3.5 C29.3,3.4 29.1,3.3 28.8,3.3 C28.6,3.3 28.4,3.3 28.2,3.4 C28,3.5 27.8,3.5 27.7,3.6 L27.4,3 C27.7,2.9 27.9,2.8 28.2,2.7 C28.5,2.6 28.7,2.6 29,2.6 C29.2,2.6 29.4,2.6 29.6,2.7 C29.8,2.7 30,2.8 30.2,2.9 C30.4,3 30.5,3.1 30.6,3.3 C30.7,3.5 30.8,3.7 30.8,3.9 C30.8,4 30.8,4.2 30.7,4.3 C30.6,4.4 30.6,4.5 30.5,4.6 C30.4,4.7 30.3,4.8 30.2,4.8 C30.1,4.9 30,4.9 29.8,4.9 L29.8,4.9 C30,4.9 30.1,5 30.3,5 C30.4,5.1 30.6,5.1 30.7,5.2 C30.8,5.3 30.9,5.4 31,5.5 C31.1,5.6 31.1,5.8 31.1,6 C31.1,6.3 31,6.5 30.9,6.7 C30.8,6.9 30.6,7 30.4,7.1 C30.2,7.2 30,7.3 29.7,7.3 C29.4,7.3 29.2,7.4 29,7.4 C28.7,7.4 28.4,7.4 28.1,7.3 C27.8,7.2 27.6,7.1 27.3,7 L27.6,6.3 C27.8,6.4 28,6.5 28.2,6.5 C28.4,6.5 28.6,6.6 28.9,6.6 C29.3,6.6 29.5,6.5 29.7,6.4 C29.9,6.3 30,6.1 30,5.9 C30,5.8 30,5.7 29.9,5.6 C29.8,5.5 29.7,5.4 29.6,5.4 C29.5,5.3 29.3,5.3 29.2,5.3 C29,5.3 28.9,5.3 28.7,5.3 L28.2,5.3 L28.2,4.7 L28.1,4.7 Z" id="Path"></path>
            <path d="M33.7,2.7 L33.7,4.4 C33.7,4.8 33.7,5.1 33.7,5.4 C33.7,5.7 33.7,6 33.7,6.4 L33.7,6.4 C33.8,6.2 33.9,5.9 34.1,5.7 C34.2,5.5 34.3,5.2 34.5,5 L35.7,2.8 L37.1,2.8 L37.1,7.5 L36.1,7.5 L36.1,5.8 C36.1,5.5 36.1,5.1 36.1,4.8 C36.1,4.4 36.1,4.1 36.2,3.7 L36.2,3.7 C36.1,4 36,4.2 35.9,4.5 C35.8,4.7 35.7,4.9 35.6,5.2 C35.4,5.6 35.2,6 35,6.4 C34.8,6.8 34.6,7.2 34.4,7.6 L33,7.6 L33,2.7 L33.7,2.7 Z" id="Path"></path>
            <polygon id="Path" points="42.4 2.7 42.4 3.6 41 3.6 41 7.5 40 7.5 40 3.6 38.6 3.6 38.6 2.7"></polygon>
            <path d="M47.8,4.9 C47.8,5 47.8,5.1 47.8,5.2 C47.8,5.3 47.8,5.4 47.8,5.4 L44.7,5.4 C44.7,5.8 44.9,6.2 45.1,6.4 C45.3,6.6 45.7,6.8 46.2,6.8 C46.7,6.8 47.1,6.7 47.5,6.6 L47.7,7.3 C47.3,7.5 46.7,7.6 46.1,7.6 C45.7,7.6 45.4,7.5 45.1,7.4 C44.8,7.3 44.6,7.1 44.4,6.9 C44.2,6.7 44,6.4 43.9,6.2 C43.8,5.9 43.7,5.6 43.7,5.2 C43.7,4.8 43.8,4.5 43.9,4.2 C44,3.9 44.2,3.6 44.4,3.4 C44.6,3.2 44.8,3 45.1,2.9 C45.4,2.8 45.7,2.7 46,2.7 C46.3,2.7 46.6,2.8 46.8,2.9 C47,3 47.2,3.2 47.4,3.4 C47.6,3.6 47.7,3.8 47.8,4.1 C47.7,4.2 47.8,4.5 47.8,4.9 Z M46.8,4.6 C46.8,4.2 46.7,3.9 46.5,3.7 C46.3,3.5 46.1,3.4 45.7,3.4 C45.4,3.4 45.1,3.5 44.9,3.7 C44.7,3.9 44.6,4.2 44.5,4.6 L46.8,4.6 Z" id="Shape"></path>
            <path d="M52,2.8 C52.2,2.8 52.4,2.7 52.7,2.7 C53,2.7 53.3,2.7 53.6,2.7 C53.8,2.7 54,2.7 54.3,2.7 C54.6,2.7 54.8,2.8 55,2.9 C55.2,3 55.4,3.1 55.6,3.3 C55.8,3.5 55.8,3.7 55.8,4 C55.8,4.1 55.8,4.3 55.7,4.4 C55.6,4.5 55.6,4.6 55.5,4.7 C55.4,4.8 55.3,4.9 55.2,4.9 C55.1,5 55,5 54.8,5 L54.8,5 C55.1,5.1 55.4,5.2 55.6,5.4 C55.8,5.6 56,5.7 56,6 C56,6.3 55.9,6.6 55.7,6.8 C55.5,7 55.3,7.1 55,7.2 C54.7,7.3 54.5,7.4 54.2,7.4 C53.9,7.4 53.6,7.4 53.4,7.4 C53.1,7.4 52.9,7.4 52.6,7.4 C52.4,7.4 52.1,7.4 52,7.4 L52,2.8 L52,2.8 Z M53,4.6 L53.5,4.6 C53.7,4.6 53.8,4.6 54,4.6 C54.1,4.6 54.3,4.5 54.4,4.5 C54.5,4.5 54.6,4.4 54.7,4.3 C54.8,4.2 54.8,4.1 54.8,4 C54.8,3.8 54.7,3.6 54.5,3.5 C54.3,3.4 54,3.4 53.7,3.4 C53.6,3.4 53.5,3.4 53.4,3.4 C53.3,3.4 53.2,3.4 53.1,3.4 C53,3.4 53,4.6 53,4.6 Z M53,6.7 C53.1,6.7 53.2,6.7 53.3,6.7 C53.4,6.7 53.5,6.7 53.6,6.7 C53.7,6.7 53.9,6.7 54,6.7 C54.1,6.7 54.3,6.6 54.4,6.6 C54.5,6.5 54.6,6.5 54.7,6.4 C54.8,6.3 54.8,6.2 54.8,6 C54.8,5.7 54.7,5.5 54.4,5.4 C54.2,5.3 53.8,5.2 53.4,5.2 L53,5.2 L53,6.7 L53,6.7 Z" id="Shape"></path>
          </g>
        </g>
      </g>
    </g>
  </g>
</svg>
