<svg width="139" height="30" viewBox="0 0 139 30" fill="none" xmlns="http://www.w3.org/2000/svg">
<path fill-rule="evenodd" clip-rule="evenodd" d="M34.0169 23.6938C36.3873 23.6938 38.7946 23.0035 40.4871 21.5461L40.4873 21.5458L39.246 18.4393C38.268 19.2448 36.5377 20.0119 34.469 20.0119C31.7976 20.0119 29.7671 18.5926 29.3903 15.9847H41.6154C41.8041 15.3328 41.8792 14.6804 41.8792 13.6064C41.8792 8.7735 38.2306 5.59045 33.8668 5.59045C28.2996 5.59045 24.9141 9.61787 24.9141 14.6425C24.9141 20.0887 28.5627 23.6938 34.0169 23.6938ZM37.5536 13.0313H29.2402C29.6915 10.7684 31.0834 9.27235 33.679 9.27235C36.1614 9.27235 37.5907 10.9219 37.5536 13.0313Z" fill="white"/>
<path d="M43.4199 6.01245H58.8428V10.4233H53.3135V23.2721H48.9878V10.4233H43.4199V6.01245Z" fill="white"/>
<path fill-rule="evenodd" clip-rule="evenodd" d="M69.4503 23.6938C71.8204 23.6938 74.228 23.0035 75.9204 21.5461L75.9206 21.5458L74.6793 18.4393C73.7013 19.2448 71.971 20.0119 69.9023 20.0119C67.2312 20.0119 65.2004 18.5926 64.8237 15.9847H77.0488C77.2375 15.3328 77.3126 14.6804 77.3126 13.6064C77.3126 8.7735 73.6639 5.59045 69.3002 5.59045C63.7332 5.59045 60.3477 9.61787 60.3477 14.6425C60.3477 20.0887 63.9963 23.6938 69.4503 23.6938ZM72.9869 13.0313H64.6738C65.1249 10.7684 66.517 9.27235 69.1124 9.27235C71.5948 9.27235 73.0241 10.9219 72.9869 13.0313Z" fill="white"/>
<path d="M91.3797 10.2509H86.9037L86.7907 12.0917C85.9633 21.4886 83.7062 23.4446 79.1544 23.4446L78.7783 19.1489C80.2455 19.302 82.2389 17.8832 82.615 11.2095L82.8788 5.84009H95.7053V23.0995H91.3795V10.2507L91.3797 10.2509Z" fill="white"/>
<path fill-rule="evenodd" clip-rule="evenodd" d="M108.569 23.6938C110.939 23.6938 113.346 23.0035 115.039 21.5461V21.5458L113.797 18.4393C112.82 19.2448 111.089 20.0119 109.021 20.0119C106.35 20.0119 104.319 18.5926 103.942 15.9847H116.167C116.356 15.3328 116.431 14.6804 116.431 13.6064C116.431 8.7735 112.782 5.59045 108.419 5.59045C102.851 5.59045 99.4658 9.61787 99.4658 14.6425C99.4658 20.0887 103.114 23.6938 108.569 23.6938ZM112.105 13.0313H103.792C104.243 10.7684 105.635 9.27235 108.231 9.27235C110.713 9.27235 112.142 10.9219 112.105 13.0313Z" fill="white"/>
<path d="M119.928 6.01245H123.839L129.595 13.2229L135.049 6.01245H138.849V23.2721H134.522V12.7241L129.52 19.1682H129.407L124.254 12.7241V23.2721H119.928V6.01245Z" fill="white"/>
<path d="M21.0373 21.3047C19.3907 23.0276 17.0915 24.0989 14.5458 24.0989C12.7995 24.0989 11.1692 23.5942 9.7854 22.7217C9.65901 22.6496 9.53191 22.5713 9.40408 22.4816C9.38418 22.4652 8.26542 21.6441 8.01169 21.3651C7.70352 21.0264 6.93609 19.8776 6.93609 19.8776C6.93009 19.868 6.9253 19.8588 6.91954 19.8492C6.01062 18.4089 5.4811 16.696 5.4811 14.8559C5.4811 9.75109 9.53958 5.61291 14.5461 5.61291C17.0493 5.61291 19.3156 6.64752 20.956 8.3201L24.8317 4.36825C22.1995 1.68429 18.5628 0.0241699 14.5461 0.0241699C6.51257 0.0241699 0 6.66439 0 14.8559C0 23.0472 6.51233 29.6876 14.5461 29.6876C18.6053 29.6876 22.2755 27.9916 24.9142 25.2575L21.0375 21.3047H21.0373Z" fill="white"/>
</svg>
