<svg xmlns="http://www.w3.org/2000/svg" width="168" height="30" viewBox="0 0 168 30">
  <g fill="#FFF" fill-rule="evenodd">
    <path d="M132.173104 6.89395504L132.173104 21.1226352 127.910649 21.1226352 127.910649 10.1547043 124.138637 10.1547043C123.724205 16.3377821 122.651813 21.083419 118.933542 21.4015055L116.196159 17.7519839 116.196159 17.742785C116.50311 17.8614017 116.809577 17.9209522 117.085542 17.9209522 119.41624 17.9209522 119.937669 13.2673037 120.213635 6.89395504L132.173104 6.89395504zM101.280954.115857061L101.280954 8.38368415 104.634661 8.38368415 109.886718.115857061 114.841992.115857061 108.106499 10.2573441 115.227859 20.9343009 110.302119 20.9343009 104.634661 12.4287562 101.280954 12.4287562 101.280954 20.9343009 96.8301648 20.9343009 96.8301648.115857061 101.280954.115857061zM139.154061 20.9343009L135.562153 20.9343009 135.562153 6.89395504 139.688078 6.89395504 139.688078 14.7914075 146.040609 6.89395504 149.602499 6.89395504 149.602499 20.9343009 145.506107 20.9343009 145.506107 13.0368484 139.154061 20.9343009zM157.604528 20.9343009L153.475698 20.9343009 153.475698 6.89395504 157.604528 6.89395504 157.604528 12.1300357 159.327133 12.1300357 162.950995 6.89395504 167.584793 6.89395504 162.683744 13.8264968 168.000194 20.9343009 163.36688 20.9343009 159.268067 15.3767447 157.604528 15.3767447 157.604528 20.9343009zM7.02791931 17.4293948L15.4927954 17.4293948 15.4927954 4.3573487 12.1448991 4.3573487 7.02791931 17.4293948zM8.16615562 2.93055908L5.89936599 0 20.0835043 0 20.0835043 17.1064669 22.7550432 17.1064669 22.7550432 25.6599424 18.7927608 25.6599424 18.7927608 21.0818213 3.96276657 21.0818213 3.96276657 25.6599424 0 25.6599424 0 17.1064669 2.61682997 17.1064669 8.16615562 2.93055908zM34.5963804 6.29394813C39.1701441 6.29394813 41.6368876 9.96331988 41.6368876 13.8718617 41.6368876 17.7808876 39.1701441 21.4502594 34.5963804 21.4502594 32.3097406 21.4502594 30.7754697 20.5255331 29.842513 19.5112392L29.842513 28.6185821 25.6599424 29.9112622 25.6599424 6.7112853 29.361268 6.7112853 29.361268 8.79990778C30.2637233 7.51691066 31.9185476 6.29394813 34.5963804 6.29394813L34.5963804 6.29394813zM37.2795389 13.7982709C37.2795389 11.5455216 35.8290259 9.68299712 33.3913314 9.68299712 31.5084726 9.68299712 30.1194467 10.8241383 29.5331412 12.0858329 29.3719193 12.5816023 29.2910663 13.152415 29.2910663 13.7982709 29.2910663 14.4436427 29.3719193 15.0144553 29.5331412 15.5102248 30.1194467 16.7719193 31.5084726 17.9135447 33.3913314 17.9135447 35.8290259 17.9135447 37.2795389 16.0510202 37.2795389 13.7982709L37.2795389 13.7982709zM50.3147896 6.29394813C54.5724035 6.29394813 57.2923573 8.03737176 57.2923573 12.7050605L57.2923573 17.2250836C57.2923573 17.9638963 57.7658559 18.1706282 58.2974524 18.1706282 58.5346859 18.1706282 58.8004841 18.1410951 59.0662824 18.0524957L59.0662824 20.7409798C58.4165533 20.977245 57.5886571 21.1544438 56.7898098 21.1544438 55.3412334 21.1544438 54.2470548 20.6233314 53.6559078 19.55917 52.2659135 20.6523804 50.6401383 21.3025937 48.5408646 21.3025937 45.8799769 21.3025937 43.573487 19.765902 43.573487 16.9592853 43.573487 13.3547896 46.9741556 12.2325303 49.8122421 12.2325303 50.9354697 12.2325303 52.1777983 12.3797118 53.1828934 12.6164611L53.1828934 12.1139135C53.1828934 10.6958386 52.0596657 9.72076081 49.8422594 9.72076081 48.7563112 9.72076081 47.734755 9.88537176 46.8129337 10.1230893L44.9741326 7.18768876C46.1593314 6.80714697 48.2237464 6.29394813 50.3147896 6.29394813L50.3147896 6.29394813zM50.8705937 14.5244957C49.3861902 14.5244957 47.9308357 15.0512507 47.9308357 16.5695447 47.9308357 17.6845418 48.891389 18.3976945 50.1138674 18.3976945 51.2487147 18.3976945 52.3259481 18.056853 53.2564841 17.1892565L53.2564841 14.8653372C52.6459712 14.7104092 51.7144669 14.5244957 50.8705937 14.5244957L50.8705937 14.5244957zM65.0789395 20.9341556L61.4870317 20.9341556 61.4870317 6.8938098 65.6134409 6.8938098 65.6134409 14.7917464 71.965487 6.8938098 75.5273775 6.8938098 75.5273775 20.9341556 71.4309856 20.9341556 71.4309856 13.0367032 65.0789395 20.9341556zM88.1602997 20.8184438L79.4005764 20.8184438 79.4005764 6.77809798 87.0138329 6.77809798C90.4106282 6.77809798 91.8606571 8.62416138 91.8606571 10.5249337 91.8606571 11.5489107 91.4215331 13.1064207 90.1690375 13.6752968 91.8611412 14.1744553 92.9567723 15.3194697 92.9567723 17.0159308 92.9567723 19.0048184 91.7652795 20.8184438 88.1602997 20.8184438L88.1602997 20.8184438zM83.5158501 15.0086455L83.5158501 17.9135447 87.1687608 17.9135447C88.2159769 17.9135447 89.0835735 17.5504323 89.0835735 16.4891758 89.0835735 15.3436772 88.1864438 15.0086455 87.1687608 15.0086455L83.5158501 15.0086455zM83.5158501 9.68299712L83.5158501 12.5878963 86.6076311 12.5588473C87.570121 12.5588473 88.3573487 12.1889568 88.3573487 11.1354467 88.3573487 9.99575793 87.5115389 9.65394813 86.5785821 9.65394813L83.5158501 9.68299712zM63.4236311 0L78.4322767 0 65.4163919 4.3573487 65.3602305 2.66282421 63.4236311 0z"/>
  </g>
</svg>
