
<svg width="137px" height="42px" viewBox="0 0 137 42" version="1.1" xmlns="http://www.w3.org/2000/svg" xmlns:xlink="http://www.w3.org/1999/xlink">
  <defs>
    <linearGradient x1="61.1229855%" y1="5.0101713%" x2="26.3361917%" y2="71.9025678%" id="linearGradient-1">
      <stop stop-color="#00A0FF" offset="0%"></stop>
      <stop stop-color="#00A1FF" offset="1%"></stop>
      <stop stop-color="#00BEFF" offset="26%"></stop>
      <stop stop-color="#00D2FF" offset="51%"></stop>
      <stop stop-color="#00DFFF" offset="76%"></stop>
      <stop stop-color="#00E3FF" offset="100%"></stop>
    </linearGradient>
    <linearGradient x1="107.636772%" y1="49.9995414%" x2="-130.468268%" y2="49.9995414%" id="linearGradient-2">
      <stop stop-color="#FFE000" offset="0%"></stop>
      <stop stop-color="#FFBD00" offset="41%"></stop>
      <stop stop-color="#FFA500" offset="78%"></stop>
      <stop stop-color="#FF9C00" offset="100%"></stop>
    </linearGradient>
    <linearGradient x1="86.2389106%" y1="31.0746021%" x2="-50.0825977%" y2="135.016962%" id="linearGradient-3">
      <stop stop-color="#FF3A44" offset="0%"></stop>
      <stop stop-color="#C31162" offset="100%"></stop>
    </linearGradient>
    <linearGradient x1="-18.8188998%" y1="-11.2105288%" x2="42.0848888%" y2="35.2418248%" id="linearGradient-4">
      <stop stop-color="#32A071" offset="0%"></stop>
      <stop stop-color="#2DA771" offset="7%"></stop>
      <stop stop-color="#15CF74" offset="48%"></stop>
      <stop stop-color="#06E775" offset="80%"></stop>
      <stop stop-color="#00F076" offset="100%"></stop>
    </linearGradient>
  </defs>
  <g id="Page-1" stroke="none" stroke-width="1" fill="none" fill-rule="evenodd">
    <g id="desk-footer" transform="translate(-1189.000000, -60.000000)" fill-rule="nonzero">
      <g id="Footer">
        <g id="iko_googleplay_ru" transform="translate(1190.000000, 61.000000)">
          <g id="Layer_2" transform="translate(0.227273, 0.000000)">
            <g id="artwork">
              <path d="M5.0005102,0.109589041 L129.99949,0.109589041 C132.754592,0.109589041 135,2.34246575 135,5.08219178 L135,34.9178082 C135,37.6575342 132.754592,39.890411 129.99949,39.890411 L5.0005102,39.890411 C2.24540816,39.890411 0,37.6575342 0,34.9178082 L0,5.08219178 C0,2.34246575 2.24540816,0.109589041 5.0005102,0.109589041 Z" id="Path" stroke="#7E7E7E"></path>
              <path d="M10.4418367,7.60273973 C10.125,8 9.95969388,8.49315068 10.0010204,9 L10.0010204,31 C9.97346939,31.5068493 10.1387755,32.0136986 10.4693878,32.3972603 L10.5382653,32.4794521 L22.894898,20.1643836 L22.894898,19.8630137 L10.5107143,7.53424658 L10.4418367,7.60273973 Z" id="Path" fill="url(#linearGradient-1)"></path>
              <path d="M27,24.260274 L22.894898,20.1506849 L22.894898,19.8493151 L27,15.739726 L27.0964286,15.7945205 L32.0005102,18.5616438 C33.4056122,19.3424658 33.4056122,20.6438356 32.0005102,21.4383562 L27.1102041,24.2054795 L27,24.260274 Z" id="Path" fill="url(#linearGradient-2)"></path>
              <path d="M27.1239796,24.2054795 L22.894898,20 L10.4280612,32.3972603 C11.0066327,32.9178082 11.8744898,32.9452055 12.4943878,32.4657534 L27.1239796,24.2054795" id="Path" fill="url(#linearGradient-3)"></path>
              <path d="M27.1239796,15.8082192 L12.5081633,7.54794521 C11.8882653,7.06849315 11.0204082,7.09589041 10.4418367,7.60273973 L22.9086735,20 L27.1239796,15.8082192 Z" id="Path" fill="url(#linearGradient-4)"></path>
            </g>
          </g>
          <path d="M68.5022374,21.6849005 C66.1447067,21.6849005 64.2421381,23.6038713 64.2421381,25.9646195 C64.2421381,28.3253676 66.1584934,30.2305328 68.5160241,30.2305328 C70.8735548,30.2305328 72.7761235,28.3115621 72.7761235,25.9508139 C72.8036969,23.6314824 70.9562752,21.7263172 68.6401047,21.6849005 C68.5987445,21.6849005 68.5573843,21.6849005 68.5022374,21.6849005 L68.5022374,21.6849005 Z M68.5022374,28.5324508 C67.0822043,28.6290896 65.8413987,27.5522571 65.7448916,26.130286 C65.6483845,24.7083149 66.7237493,23.4658158 68.1437824,23.369177 C69.5638156,23.2725382 70.8046212,24.3493707 70.9011283,25.7713418 C70.9011283,25.826564 70.9011283,25.8817862 70.9011283,25.9508139 C70.9700619,27.3175629 69.9222705,28.4634231 68.5573843,28.5324508 C68.5573843,28.5324508 68.5298109,28.5324508 68.5022374,28.5324508 Z M59.1824084,21.6849005 C56.8248777,21.6849005 54.9223091,23.6038713 54.9223091,25.9646195 C54.9223091,28.3253676 56.8386645,30.2305328 59.1961952,30.2305328 C61.5537259,30.2305328 63.4562945,28.3115621 63.4562945,25.9508139 C63.483868,23.6314824 61.6364462,21.7263172 59.3202757,21.6849005 C59.2789156,21.6849005 59.2237686,21.6849005 59.1824084,21.6849005 Z M59.1824084,28.5324508 C57.7623753,28.6290896 56.5215697,27.5522571 56.4250626,26.130286 C56.3285555,24.7083149 57.4039204,23.4658158 58.8239535,23.369177 C60.2439866,23.2725382 61.4847922,24.3493707 61.5812993,25.7713418 C61.5812993,25.826564 61.5812993,25.8817862 61.5812993,25.9508139 C61.650233,27.3175629 60.6024416,28.4634231 59.2375554,28.5324508 C59.2237686,28.5324508 59.1961952,28.5324508 59.1824084,28.5324508 Z M48.0978781,22.9964273 L48.0978781,24.8049537 L52.4269111,24.8049537 C52.3579775,25.6608975 51.9995225,26.4616191 51.4204799,27.0828686 C50.5381292,27.980229 49.324897,28.4634231 48.0840914,28.4082009 C45.4370394,28.4082009 43.2863096,26.2545359 43.2863096,23.6038713 C43.2863096,20.9532067 45.4370394,18.7995417 48.0840914,18.7995417 C49.3111103,18.7857361 50.4829823,19.2413191 51.365333,20.0972629 L52.6337121,18.8271527 C51.4342666,17.6398759 49.7936458,16.9772097 48.0978781,17.0048208 C44.4443949,16.8667654 41.3699543,19.7107076 41.232087,23.369177 C41.0942197,27.0276464 43.9342859,30.1062829 47.5877692,30.2443384 C47.7532099,30.2443384 47.9324374,30.2443384 48.0978781,30.2443384 C49.835006,30.3133661 51.5032003,29.6368944 52.7164324,28.3943954 C53.7642239,27.2347296 54.3294798,25.7161197 54.2743328,24.1560931 C54.2743328,23.7833434 54.2467594,23.4105937 54.1778257,23.0378439 L48.0978781,22.9964273 Z M93.4424306,24.4045929 C92.9047482,22.8307608 91.4571416,21.7539283 89.8027341,21.6849005 C87.5968574,21.6849005 85.7907959,23.4658158 85.7907959,25.6885086 C85.7907959,25.7713418 85.7907959,25.8541751 85.8045826,25.9508139 C85.7770091,28.2977566 87.6657911,30.2029217 89.9957483,30.2305328 C91.4295681,30.2443384 92.7806676,29.52645 93.5665112,28.3253676 L92.1189046,27.3175629 C91.6777293,28.0492567 90.878099,28.5048397 90.0233217,28.4910342 C89.1409711,28.5324508 88.3137673,28.0078401 87.9553124,27.193313 L93.6492315,24.8325648 L93.4424306,24.4045929 Z M87.6382176,25.826564 C87.5554972,24.5426483 88.534355,23.4243992 89.8165208,23.3415659 C89.8303075,23.3415659 89.857881,23.3415659 89.8716677,23.3415659 C90.5334307,23.3001493 91.1538335,23.6590935 91.4433549,24.2389263 L87.6382176,25.826564 Z M83.0058766,29.9544219 L84.8808717,29.9544219 L84.8808717,17.4327927 L83.0058766,17.4327927 L83.0058766,29.9544219 Z M79.9452227,22.6374831 L79.876289,22.6374831 C79.2972464,22.0162336 78.4838294,21.6572895 77.6290522,21.6849005 C75.2715215,21.7953449 73.4654599,23.7971489 73.5757538,26.1578971 C73.6860476,28.3529787 75.4369622,30.1062829 77.6290522,30.2167273 C78.4838294,30.2305328 79.3110331,29.8715887 79.876289,29.2089225 L79.9452227,29.2089225 L79.9452227,29.8163665 C79.9452227,31.4454208 79.0766587,32.3151701 77.6704124,32.3151701 C76.719128,32.287559 75.8643508,31.6939206 75.5196826,30.7965602 L73.8928485,31.4730319 C74.5132514,33.0192529 76.0022181,34.0270577 77.6704124,33.9994466 C79.8625023,33.9994466 81.6685638,32.7017254 81.6685638,29.5540611 L81.6685638,21.9195948 L79.9314359,21.9195948 L79.9452227,22.6374831 Z M77.7944929,28.5324508 C76.3744598,28.4496175 75.2853082,27.220924 75.3818153,25.7851474 C75.4645357,24.4874262 76.4985404,23.4520103 77.7944929,23.369177 C79.1180189,23.4243992 80.1382369,24.5426483 80.08309,25.8679806 C80.08309,25.8955917 80.08309,25.9232028 80.08309,25.9508139 C80.1933838,27.2623407 79.2283128,28.4220065 77.9047868,28.5324508 C77.8634266,28.5324508 77.8358531,28.5324508 77.7944929,28.5324508 L77.7944929,28.5324508 Z M102.21079,17.4327927 L97.7301034,17.4327927 L97.7301034,29.9544219 L99.6050986,29.9544219 L99.6050986,25.2053145 L102.21079,25.2053145 C104.36152,25.3571755 106.222729,23.7419267 106.374383,21.6020673 C106.526037,19.4622078 104.912989,17.5846537 102.776046,17.4327927 C102.583032,17.4189872 102.390018,17.4189872 102.21079,17.4327927 L102.21079,17.4327927 Z M102.21079,23.4382047 L99.6050986,23.4382047 L99.6050986,19.1722914 L102.252151,19.1722914 C103.437809,19.1722914 104.389094,20.1386795 104.389094,21.3121508 C104.389094,22.4994277 103.424023,23.4520103 102.252151,23.4520103 L102.252151,23.4520103 L102.21079,23.4382047 Z M113.750283,21.6434839 C112.357823,21.5606506 111.048084,22.3061501 110.413894,23.5624546 L112.068302,24.2527319 C112.41297,23.6314824 113.074733,23.2863438 113.777856,23.3415659 C114.770501,23.2311216 115.666638,23.9352044 115.776932,24.9292036 C115.776932,24.9430091 115.776932,24.9430091 115.776932,24.9568147 L115.776932,25.0810646 C115.170316,24.7635371 114.508553,24.5978705 113.819216,24.5978705 C112.040728,24.5978705 110.22088,25.6056753 110.22088,27.4280072 C110.289814,29.0294504 111.640913,30.2581439 113.240174,30.1891162 C113.267747,30.1891162 113.295321,30.1891162 113.336681,30.1891162 C114.287965,30.2443384 115.197889,29.7749499 115.721785,28.9604227 L115.776932,28.9604227 L115.776932,29.9682275 L117.582993,29.9682275 L117.582993,25.1500923 C117.582993,22.9550107 115.914799,21.6849005 113.791643,21.6849005 L113.750283,21.6434839 Z M113.529695,28.5048397 C112.923079,28.5048397 112.068302,28.1873122 112.068302,27.4418128 C112.068302,26.434008 113.12988,26.1026749 114.067378,26.1026749 C114.660207,26.0888694 115.253036,26.2269248 115.763145,26.5168413 C115.639065,27.6488959 114.68778,28.5048397 113.557269,28.5186453 L113.529695,28.5048397 Z M124.159263,21.9334004 L122.02232,27.3589795 L121.967173,27.3589795 L119.74751,21.9334004 L117.748434,21.9334004 L121.084823,29.52645 L119.154681,33.7509468 L121.153756,33.7509468 L126.227273,21.9334004 L124.159263,21.9334004 L124.159263,21.9334004 Z M107.339454,29.9544219 L109.200662,29.9544219 L109.200662,17.4327927 L107.339454,17.4327927 L107.339454,29.9544219 Z" id="Shape" fill="#FFFFFF"></path>
          <g id="Group" transform="translate(41.227273, 7.000000)" fill="#FFFFFF">
            <path d="M4.51790634,0.211320755 L4.51790634,5.11132075 L5.0137741,5.1245283 L4.95867769,7 L4.38016529,7 L4.32506887,5.67924528 L0.716253444,5.67924528 L0.661157025,7 L0.0826446281,7 L0.0275482094,5.1245283 L0.454545455,5.11132075 C0.661157025,4.74150943 0.8815427,4.33207547 1.01928375,3.90943396 C1.21212121,3.2754717 1.29476584,2.5490566 1.29476584,1.59811321 L1.29476584,0.211320755 L4.51790634,0.211320755 Z M1.99724518,1.82264151 C1.99724518,2.70754717 1.91460055,3.44716981 1.70798898,4.05471698 C1.58402204,4.43773585 1.40495868,4.80754717 1.23966942,5.09811321 L3.77410468,5.09811321 L3.77410468,0.79245283 L1.99724518,0.79245283 L1.99724518,1.82264151 Z" id="Shape"></path>
            <path d="M10.7575758,2.89245283 C10.7575758,4.78113208 9.55922865,5.78490566 8.09917355,5.78490566 C6.58402204,5.78490566 5.52341598,4.66226415 5.52341598,2.99811321 C5.52341598,1.25471698 6.65289256,0.118867925 8.18181818,0.118867925 C9.75206612,0.118867925 10.7575758,1.26792453 10.7575758,2.89245283 Z M6.32231405,2.98490566 C6.32231405,4.16037736 6.98347107,5.20377358 8.14049587,5.20377358 C9.31129477,5.20377358 9.97245179,4.17358491 9.97245179,2.93207547 C9.97245179,1.83584906 9.38016529,0.7 8.15426997,0.7 C6.92837466,0.7 6.32231405,1.78301887 6.32231405,2.98490566 Z" id="Shape"></path>
            <path d="M15.7162534,5.50754717 C15.4407713,5.63962264 14.9035813,5.77169811 14.2011019,5.77169811 C12.5895317,5.77169811 11.3774105,4.79433962 11.3774105,2.99811321 C11.3774105,1.28113208 12.5895317,0.118867925 14.3663912,0.118867925 C15.0826446,0.118867925 15.523416,0.264150943 15.7300275,0.356603774 L15.5509642,0.937735849 C15.2754821,0.805660377 14.8760331,0.713207547 14.3939394,0.713207547 C13.0578512,0.713207547 12.1625344,1.53207547 12.1625344,2.97169811 C12.1625344,4.31886792 12.9752066,5.17735849 14.3663912,5.17735849 C14.8209366,5.17735849 15.2754821,5.08490566 15.5647383,4.95283019 L15.7162534,5.50754717 Z" id="Path"></path>
            <polygon id="Path" points="18.0165289 0.805660377 16.2809917 0.805660377 16.2809917 0.198113208 20.5096419 0.198113208 20.5096419 0.805660377 18.7603306 0.805660377 18.7603306 5.69245283 18.0165289 5.69245283"></polygon>
            <path d="M21.6942149,0.211320755 L22.8374656,2.5490566 C22.9752066,2.87924528 23.1129477,3.19622642 23.2506887,3.51320755 L23.2644628,3.51320755 C23.3608815,3.22264151 23.4710744,2.90566038 23.6225895,2.52264151 L24.5179063,0.211320755 L25.3030303,0.211320755 L24.1046832,3.0245283 C23.7878788,3.7509434 23.4297521,4.59622642 23.030303,5.11132075 C22.6584022,5.56037736 22.2451791,5.78490566 21.7355372,5.78490566 C21.5426997,5.78490566 21.4187328,5.77169811 21.322314,5.73207547 L21.4049587,5.1509434 C21.4600551,5.16415094 21.5426997,5.17735849 21.6804408,5.17735849 C22.2727273,5.16415094 22.6170799,4.62264151 22.7961433,4.23962264 C22.8512397,4.12075472 22.8374656,4.04150943 22.768595,3.90943396 L20.8677686,0.211320755 L21.6942149,0.211320755 L21.6942149,0.211320755 Z" id="Path"></path>
            <polygon id="Path" points="30.0413223 0.211320755 30.0413223 5.69245283 29.2975207 5.69245283 29.2975207 0.805660377 26.6391185 0.805660377 26.6391185 5.69245283 25.8953168 5.69245283 25.8953168 0.211320755"></polygon>
            <polygon id="Path" points="32.0661157 0.211320755 32.0661157 2.50943396 34.8347107 2.50943396 34.8347107 0.211320755 35.5785124 0.211320755 35.5785124 5.69245283 34.8347107 5.69245283 34.8347107 3.11698113 32.0661157 3.11698113 32.0661157 5.69245283 31.322314 5.69245283 31.322314 0.211320755"></polygon>
            <path d="M41.7355372,2.89245283 C41.7355372,4.78113208 40.5371901,5.78490566 39.077135,5.78490566 C37.5619835,5.78490566 36.5013774,4.66226415 36.5013774,2.99811321 C36.5013774,1.25471698 37.630854,0.118867925 39.1597796,0.118867925 C40.7300275,0.118867925 41.7355372,1.26792453 41.7355372,2.89245283 Z M37.3002755,2.98490566 C37.3002755,4.16037736 37.9614325,5.20377358 39.1184573,5.20377358 C40.2892562,5.20377358 40.9504132,4.17358491 40.9504132,2.93207547 C40.9504132,1.83584906 40.3581267,0.7 39.1322314,0.7 C37.9201102,0.7 37.3002755,1.78301887 37.3002755,2.98490566 Z" id="Shape"></path>
            <path d="M46.2947658,0.277358491 C46.6115702,0.211320755 47.1212121,0.158490566 47.6446281,0.158490566 C48.3884298,0.158490566 48.8567493,0.277358491 49.214876,0.554716981 C49.5179063,0.766037736 49.6831956,1.09622642 49.6831956,1.51886792 C49.6831956,2.04716981 49.3250689,2.50943396 48.7190083,2.72075472 L48.7190083,2.73396226 C49.2561983,2.86603774 49.9035813,3.30188679 49.9035813,4.10754717 C49.9035813,4.58301887 49.7107438,4.93962264 49.4214876,5.20377358 C49.0220386,5.54716981 48.3746556,5.71886792 47.4517906,5.71886792 C46.9421488,5.71886792 46.5564738,5.69245283 46.3085399,5.65283019 L46.3085399,0.277358491 L46.2947658,0.277358491 Z M47.0385675,2.52264151 L47.7134986,2.52264151 C48.4986226,2.52264151 48.953168,2.12641509 48.953168,1.59811321 C48.953168,0.950943396 48.4435262,0.7 47.6997245,0.7 C47.3553719,0.7 47.1625344,0.726415094 47.0523416,0.752830189 L47.0523416,2.52264151 L47.0385675,2.52264151 Z M47.0385675,5.1509434 C47.1763085,5.17735849 47.3966942,5.17735849 47.6584022,5.17735849 C48.415978,5.17735849 49.1322314,4.91320755 49.1322314,4.10754717 C49.1322314,3.35471698 48.4573003,3.0509434 47.6584022,3.0509434 L47.0523416,3.0509434 L47.0523416,5.1509434 L47.0385675,5.1509434 Z" id="Shape"></path>
          </g>
        </g>
      </g>
    </g>
  </g>
</svg>
