<svg xmlns="http://www.w3.org/2000/svg" width="140" height="25" viewBox="0 0 140 25">
  <g fill="none" fill-rule="evenodd">
    <path fill="#00B140" d="M110.144254,5.74496254 L110.144254,17.602196 L106.592207,17.602196 L106.592207,8.4622536 L103.448865,8.4622536 C103.103504,13.6148184 102.209844,17.5695159 99.1112853,17.8345879 L96.8301326,14.7933199 L96.8301326,14.7856542 C97.0859251,14.8845014 97.3413141,14.9341268 97.5712853,14.9341268 C99.5135331,14.9341268 99.9480576,11.0560865 100.178029,5.74496254 L110.144254,5.74496254 Z M84.4007954,0.0965475504 L84.4007954,6.98640346 L87.1955504,6.98640346 L91.5722651,0.0965475504 L95.7016599,0.0965475504 L90.0887493,8.54778674 L96.0232161,17.4452507 L91.9184323,17.4452507 L87.1955504,10.3572968 L84.4007954,10.3572968 L84.4007954,17.4452507 L80.691804,17.4452507 L80.691804,0.0965475504 L84.4007954,0.0965475504 Z M115.961718,17.4452507 L112.968461,17.4452507 L112.968461,5.74496254 L116.406732,5.74496254 L116.406732,12.3261729 L121.700507,5.74496254 L124.668749,5.74496254 L124.668749,17.4452507 L121.255089,17.4452507 L121.255089,10.8640403 L115.961718,17.4452507 Z M131.337107,17.4452507 L127.896415,17.4452507 L127.896415,5.74496254 L131.337107,5.74496254 L131.337107,10.1083631 L132.772611,10.1083631 L135.792496,5.74496254 L139.653994,5.74496254 L135.569787,11.5220807 L140.000161,17.4452507 L136.139066,17.4452507 L132.723389,12.8139539 L131.337107,12.8139539 L131.337107,17.4452507 Z"/>
    <path fill="#425563" d="M5.85659942,14.5244957 L12.9106628,14.5244957 L12.9106628,3.63112392 L10.1207493,3.63112392 L5.85659942,14.5244957 Z M6.80512968,2.44213256 L4.91613833,0 L16.7362536,0 L16.7362536,14.255389 L18.962536,14.255389 L18.962536,21.3832853 L15.660634,21.3832853 L15.660634,17.5681844 L3.30230548,17.5681844 L3.30230548,21.3832853 L0,21.3832853 L0,14.255389 L2.18069164,14.255389 L6.80512968,2.44213256 Z M28.830317,5.24495677 C32.6417867,5.24495677 34.6974063,8.30276657 34.6974063,11.5598847 C34.6974063,14.8174063 32.6417867,17.8752161 28.830317,17.8752161 C26.9247839,17.8752161 25.6462248,17.104611 24.8687608,16.259366 L24.8687608,23.8488184 L21.3832853,24.9260519 L21.3832853,5.59273775 L24.4677233,5.59273775 L24.4677233,7.33325648 C25.2197695,6.26409222 26.5987896,5.24495677 28.830317,5.24495677 L28.830317,5.24495677 Z M31.0662824,11.4985591 C31.0662824,9.62126801 29.8575216,8.06916427 27.8261095,8.06916427 C26.2570605,8.06916427 25.0995389,9.02011527 24.610951,10.0715274 C24.4765994,10.4846686 24.4092219,10.9603458 24.4092219,11.4985591 C24.4092219,12.0363689 24.4765994,12.5120461 24.610951,12.9251873 C25.0995389,13.9765994 26.2570605,14.9279539 27.8261095,14.9279539 C29.8575216,14.9279539 31.0662824,13.3758501 31.0662824,11.4985591 L31.0662824,11.4985591 Z M41.9289914,5.24495677 C45.4770029,5.24495677 47.7436311,6.6978098 47.7436311,10.5875504 L47.7436311,14.3542363 C47.7436311,14.9699135 48.1382133,15.1421902 48.5812104,15.1421902 C48.7789049,15.1421902 49.0004035,15.1175793 49.221902,15.0437464 L49.221902,17.2841499 C48.6804611,17.4810375 47.9905476,17.6287032 47.3248415,17.6287032 C46.1176945,17.6287032 45.205879,17.1861095 44.7132565,16.2993084 C43.554928,17.210317 42.2001153,17.7521614 40.4507205,17.7521614 C38.2333141,17.7521614 36.3112392,16.471585 36.3112392,14.1327378 C36.3112392,11.1289914 39.1451297,10.1937752 41.5102017,10.1937752 C42.4462248,10.1937752 43.4814986,10.3164265 44.3190778,10.5137176 L44.3190778,10.094928 C44.3190778,8.91319885 43.3830548,8.10063401 41.5352161,8.10063401 C40.6302594,8.10063401 39.7789625,8.2378098 39.0107781,8.43590778 L37.4784438,5.98974063 C38.4661095,5.67262248 40.1864553,5.24495677 41.9289914,5.24495677 L41.9289914,5.24495677 Z M42.3921614,12.1037464 C41.1551585,12.1037464 39.9423631,12.5427089 39.9423631,13.8079539 C39.9423631,14.7371182 40.7428242,15.3314121 41.7615562,15.3314121 C42.7072622,15.3314121 43.6049568,15.0473775 44.3804035,14.3243804 L44.3804035,12.387781 C43.8716427,12.2586744 43.095389,12.1037464 42.3921614,12.1037464 L42.3921614,12.1037464 Z M54.2324496,17.4451297 L51.2391931,17.4451297 L51.2391931,5.7448415 L54.6778674,5.7448415 L54.6778674,12.3264553 L59.9712392,5.7448415 L62.9394813,5.7448415 L62.9394813,17.4451297 L59.5258213,17.4451297 L59.5258213,10.8639193 L54.2324496,17.4451297 Z M73.4669164,17.3487032 L66.167147,17.3487032 L66.167147,5.64841499 L72.5115274,5.64841499 C75.3421902,5.64841499 76.5505476,7.18680115 76.5505476,8.7707781 C76.5505476,9.62409222 76.184611,10.9220173 75.1408646,11.3960807 C76.550951,11.8120461 77.4639769,12.7662248 77.4639769,14.1799424 C77.4639769,15.8373487 76.4710663,17.3487032 73.4669164,17.3487032 L73.4669164,17.3487032 Z M69.5965418,12.5072046 L69.5965418,14.9279539 L72.640634,14.9279539 C73.5133141,14.9279539 74.2363112,14.6253602 74.2363112,13.7409798 C74.2363112,12.7863977 73.4887032,12.5072046 72.640634,12.5072046 L69.5965418,12.5072046 Z M69.5965418,8.06916427 L69.5965418,10.4899135 L72.1730259,10.4657061 C72.9751009,10.4657061 73.6311239,10.157464 73.6311239,9.2795389 C73.6311239,8.32979827 72.9262824,8.04495677 72.1488184,8.04495677 L69.5965418,8.06916427 Z M52.8530259,0 L65.3602305,0 L54.5136599,3.63112392 L54.4668588,2.21902017 L52.8530259,0 Z"/>
  </g>
</svg>
