<svg width="139" height="38" viewBox="0 0 139 38" fill="none" xmlns="http://www.w3.org/2000/svg">
<path d="M138.99 37.9802H95.7051V25.337H138.99V37.9802Z" fill="url(#paint0_linear)"/>
<path fill-rule="evenodd" clip-rule="evenodd" d="M34.0169 23.6938C36.3873 23.6938 38.7946 23.0035 40.4871 21.5461L40.4873 21.5458L39.246 18.4393C38.268 19.2448 36.5377 20.0119 34.469 20.0119C31.7976 20.0119 29.7671 18.5926 29.3903 15.9847H41.6154C41.8041 15.3328 41.8792 14.6804 41.8792 13.6064C41.8792 8.7735 38.2306 5.59045 33.8668 5.59045C28.2996 5.59045 24.9141 9.61787 24.9141 14.6425C24.9141 20.0887 28.5627 23.6938 34.0169 23.6938ZM37.5536 13.0313H29.2402C29.6915 10.7684 31.0834 9.27235 33.679 9.27235C36.1614 9.27235 37.5907 10.9219 37.5536 13.0313Z" fill="#2B2A29"/>
<path d="M43.4199 6.01251H58.8428V10.4233H53.3135V23.2722H48.9878V10.4233H43.4199V6.01251Z" fill="#2B2A29"/>
<path fill-rule="evenodd" clip-rule="evenodd" d="M69.4503 23.6938C71.8204 23.6938 74.228 23.0035 75.9204 21.5461L75.9206 21.5458L74.6793 18.4393C73.7013 19.2448 71.971 20.0119 69.9023 20.0119C67.2312 20.0119 65.2004 18.5926 64.8237 15.9847H77.0488C77.2375 15.3328 77.3126 14.6804 77.3126 13.6064C77.3126 8.7735 73.6639 5.59045 69.3002 5.59045C63.7332 5.59045 60.3477 9.61787 60.3477 14.6425C60.3477 20.0887 63.9963 23.6938 69.4503 23.6938ZM72.9869 13.0313H64.6738C65.1249 10.7684 66.517 9.27235 69.1124 9.27235C71.5948 9.27235 73.0241 10.9219 72.9869 13.0313Z" fill="#2B2A29"/>
<path d="M91.3797 10.251H86.9037L86.7907 12.0918C85.9633 21.4886 83.7062 23.4446 79.1544 23.4446L78.7783 19.1489C80.2455 19.302 82.2389 17.8832 82.615 11.2095L82.8788 5.84012H95.7053V23.0996H91.3795V10.2507L91.3797 10.251Z" fill="#2B2A29"/>
<path fill-rule="evenodd" clip-rule="evenodd" d="M108.569 23.6938C110.939 23.6938 113.346 23.0035 115.039 21.5461V21.5458L113.797 18.4393C112.82 19.2448 111.089 20.0119 109.021 20.0119C106.35 20.0119 104.319 18.5926 103.942 15.9847H116.167C116.356 15.3328 116.431 14.6804 116.431 13.6064C116.431 8.7735 112.782 5.59045 108.419 5.59045C102.851 5.59045 99.4658 9.61787 99.4658 14.6425C99.4658 20.0887 103.114 23.6938 108.569 23.6938ZM112.105 13.0313H103.792C104.243 10.7684 105.635 9.27235 108.231 9.27235C110.713 9.27235 112.142 10.9219 112.105 13.0313Z" fill="#2B2A29"/>
<path d="M119.928 6.01251H123.839L129.595 13.223L135.049 6.01251H138.849V23.2722H134.522V12.7241L129.52 19.1682H129.407L124.254 12.7241V23.2722H119.928V6.01251Z" fill="#2B2A29"/>
<path d="M21.0373 21.3047C19.3907 23.0277 17.0915 24.099 14.5458 24.099C12.7995 24.099 11.1692 23.5942 9.7854 22.7218C9.65901 22.6496 9.53191 22.5714 9.40408 22.4816C9.38418 22.4652 8.26542 21.6441 8.01169 21.3651C7.70352 21.0264 6.93609 19.8776 6.93609 19.8776C6.93009 19.8681 6.9253 19.8588 6.91954 19.8493C6.01062 18.409 5.4811 16.696 5.4811 14.856C5.4811 9.75114 9.53958 5.61295 14.5461 5.61295C17.0493 5.61295 19.3156 6.64756 20.956 8.32015L24.8317 4.3683C22.1995 1.68433 18.5628 0.0242157 14.5461 0.0242157C6.51257 0.0242157 0 6.66443 0 14.856C0 23.0472 6.51233 29.6877 14.5461 29.6877C18.6053 29.6877 22.2755 27.9916 24.9142 25.2575L21.0375 21.3047H21.0373Z" fill="#2B2A29"/>
<path fill-rule="evenodd" clip-rule="evenodd" d="M104.807 31.807C104.807 29.9987 103.53 28.8125 101.838 28.8125C100.088 28.8125 98.876 30.1229 98.876 31.807C98.876 33.6153 100.146 34.8015 101.838 34.8015C103.53 34.8015 104.807 33.5491 104.807 31.807ZM103.75 31.8073C103.75 32.9519 103.034 33.8479 101.838 33.8479C100.772 33.8479 99.9338 32.9685 99.9338 31.8073C99.9338 30.6044 100.748 29.7667 101.838 29.7667C102.912 29.7667 103.75 30.6044 103.75 31.8073Z" fill="#FEFEFE"/>
<path d="M109.568 32.2306H106.964V34.7106H105.964V28.904H106.964V31.2764H109.568V28.904H110.561V34.7106H109.568V32.2306Z" fill="#FEFEFE"/>
<path d="M115.499 29.8579H113.839L113.726 30.9529C113.392 34.3291 112.652 34.8766 111.529 34.7106L111.554 33.6985C111.993 33.7567 112.571 33.5659 112.823 30.065L112.904 28.904H116.492V34.7106H115.5V29.8576L115.499 29.8579Z" fill="#FEFEFE"/>
<path fill-rule="evenodd" clip-rule="evenodd" d="M120.626 28.8873H119.747L117.339 34.7106H118.348L118.942 33.2255H121.374L121.968 34.7106H123.034L120.626 28.8873ZM120.992 32.2719H119.324L120.162 30.2061L120.992 32.2719Z" fill="#FEFEFE"/>
<path fill-rule="evenodd" clip-rule="evenodd" d="M126.419 27.9748C126.012 27.9748 125.792 27.817 125.727 27.4938H125.727H124.792C124.849 28.1987 125.443 28.68 126.419 28.68C127.314 28.68 127.981 28.2071 128.005 27.4938H127.07C127.037 27.8503 126.785 27.9748 126.419 27.9748ZM123.889 28.904V34.7106H124.767L127.753 30.5878V34.7106H128.754V28.904H127.875L124.889 33.0351V28.904H123.889Z" fill="#FEFEFE"/>
<path d="M133.937 32.2306H131.334V34.7106H130.333V28.904H131.334V31.2764H133.937V28.904H134.93V34.7106H133.937V32.2306Z" fill="#FEFEFE"/>
<defs>
<linearGradient id="paint0_linear" x1="60.3064" y1="19.7264" x2="61.7221" y2="49.0336" gradientUnits="userSpaceOnUse">
<stop stop-color="#00A04A"/>
<stop offset="0.580392" stop-color="#00A096"/>
<stop offset="1" stop-color="#00A0E3"/>
</linearGradient>
</defs>
</svg>
