<svg width="39" height="54" viewBox="0 0 39 54" fill="none" xmlns="http://www.w3.org/2000/svg">
  <mask id="path-1-outside-1" maskUnits="userSpaceOnUse" x="0" y="0" width="39" height="54" fill="black">
    <rect fill="white" width="39" height="54"/>
    <path fill-rule="evenodd" clip-rule="evenodd" d="M10 19.4642C10 14.2347 14.2508 10 19.5 10C24.7492 10 29 14.2347 29 19.4642C29 24.6937 19.5 37 19.5 37C19.5 37 10 24.6937 10 19.4642ZM14 19.5C14 22.5431 16.4569 25 19.5 25C22.5431 25 25 22.5431 25 19.5C25 16.4569 22.5431 14 19.5 14C16.4569 14 14 16.4569 14 19.5Z"/>
  </mask>
  <path fill-rule="evenodd" clip-rule="evenodd" d="M10 19.4642C10 14.2347 14.2508 10 19.5 10C24.7492 10 29 14.2347 29 19.4642C29 24.6937 19.5 37 19.5 37C19.5 37 10 24.6937 10 19.4642ZM14 19.5C14 22.5431 16.4569 25 19.5 25C22.5431 25 25 22.5431 25 19.5C25 16.4569 22.5431 14 19.5 14C16.4569 14 14 16.4569 14 19.5Z" fill="white"/>
  <path d="M19.5 37L11.5842 43.1107L19.5 53.3648L27.4158 43.1107L19.5 37ZM19.5 0C8.76352 0 0 8.67634 0 19.4642H20C20 19.7931 19.738 20 19.5 20V0ZM39 19.4642C39 8.67634 30.2365 0 19.5 0V20C19.262 20 19 19.7931 19 19.4642H39ZM19.5 37C27.4158 43.1107 27.4164 43.1098 27.4171 43.1089C27.4174 43.1086 27.4181 43.1076 27.4187 43.1069C27.4198 43.1055 27.421 43.1039 27.4225 43.102C27.4253 43.0984 27.4286 43.094 27.4326 43.0888C27.4405 43.0785 27.4507 43.0653 27.4632 43.0491C27.488 43.0166 27.5218 42.9725 27.5638 42.9173C27.6478 42.8069 27.7652 42.6519 27.9112 42.457C28.2028 42.0678 28.6106 41.5169 29.0962 40.8433C30.0607 39.5054 31.3645 37.6386 32.6854 35.5638C33.9844 33.5236 35.4178 31.0991 36.5608 28.6747C37.5261 26.6272 39 23.1486 39 19.4642H19C19 18.3946 19.2864 18.4153 18.4704 20.146C17.8322 21.4998 16.8906 23.1325 15.8146 24.8225C14.7605 26.478 13.6893 28.0146 12.8725 29.1476C12.4675 29.7094 12.1331 30.1608 11.9052 30.465C11.7914 30.6169 11.7047 30.7313 11.6496 30.8037C11.622 30.8399 11.6024 30.8655 11.5913 30.88C11.5858 30.8873 11.5824 30.8917 11.5812 30.8933C11.5806 30.8941 11.5805 30.8941 11.581 30.8935C11.5813 30.8932 11.5817 30.8926 11.5822 30.8919C11.5825 30.8916 11.583 30.8909 11.5831 30.8908C11.5836 30.8901 11.5842 30.8893 19.5 37ZM0 19.4642C0 23.1486 1.47388 26.6272 2.4392 28.6747C3.58218 31.0991 5.01562 33.5236 6.31461 35.5638C7.63555 37.6386 8.93929 39.5054 9.90376 40.8433C10.3894 41.5169 10.7972 42.0678 11.0888 42.457C11.2348 42.6519 11.3522 42.8069 11.4362 42.9173C11.4782 42.9725 11.512 43.0166 11.5368 43.0491C11.5493 43.0653 11.5595 43.0785 11.5674 43.0888C11.5714 43.094 11.5747 43.0984 11.5775 43.102C11.579 43.1039 11.5802 43.1055 11.5813 43.1069C11.5819 43.1076 11.5826 43.1086 11.5829 43.1089C11.5836 43.1098 11.5842 43.1107 19.5 37C27.4158 30.8893 27.4164 30.8901 27.4169 30.8908C27.417 30.8909 27.4175 30.8916 27.4178 30.8919C27.4183 30.8926 27.4187 30.8932 27.419 30.8935C27.4195 30.8941 27.4194 30.8941 27.4188 30.8933C27.4176 30.8917 27.4142 30.8873 27.4087 30.88C27.3976 30.8655 27.378 30.8399 27.3504 30.8037C27.2953 30.7313 27.2086 30.6169 27.0948 30.465C26.8669 30.1608 26.5325 29.7094 26.1275 29.1476C25.3107 28.0146 24.2395 26.478 23.1854 24.8225C22.1094 23.1325 21.1678 21.4998 20.5296 20.146C19.7136 18.4153 20 18.3946 20 19.4642H0ZM19.5 15C21.9797 15 24 17.0203 24 19.5H4C4 28.066 10.934 35 19.5 35V15ZM15 19.5C15 17.0203 17.0203 15 19.5 15V35C28.066 35 35 28.066 35 19.5H15ZM19.5 24C17.0203 24 15 21.9797 15 19.5H35C35 10.934 28.066 4 19.5 4V24ZM24 19.5C24 21.9797 21.9797 24 19.5 24V4C10.934 4 4 10.934 4 19.5H24Z" fill="#22B25C" mask="url(#path-1-outside-1)"/>
</svg>
